<svg id="Layer_1" data-name="Layer 1" xmlns="http://www.w3.org/2000/svg" viewBox="0 0 565 452"><title>icons</title><path d="M283,93c-80.08,0-145,68.5-145,153s64.91,153,145,153,145-68.5,145-153S363.06,93,283,93ZM244.4,376.37c0,6-4.63,10.86-10.29,10.86h-1.72c-5.66,0-10.3-4.89-10.3-10.86V265c0-6,4.64-10.86,10.3-10.86h1.72c5.66,0,10.29,4.89,10.29,10.86ZM260,211a12,12,0,0,1-12,12H218a12,12,0,0,1-12-12V181a12,12,0,0,1,12-12h30a12,12,0,0,1,12,12Zm83.92-80c0-6,4.63-10.86,10.3-10.86h1.71c5.66,0,10.3,4.89,10.3,10.86V242.38c0,6-4.64,10.86-10.3,10.86h-1.71c-5.67,0-10.3-4.89-10.3-10.86ZM382,324a12,12,0,0,1-12,12H340a12,12,0,0,1-12-12V294a12,12,0,0,1,12-12h30a12,12,0,0,1,12,12Z" fill="#231f20"/></svg>