<svg id="Layer_1" data-name="Layer 1" xmlns="http://www.w3.org/2000/svg" viewBox="0 0 529 463"><title>icons</title><g id="man"><path d="M283.05,159.52H226.3c-10.77,0-19.58,8.17-19.58,18.17V342.78c0,10,8.81,18.17,19.58,18.17h56.75c10.77,0,19.58-8.18,19.58-18.17V177.69C302.63,167.69,293.82,159.52,283.05,159.52Z" fill="#231f20"/><path d="M254.68,156.41c18.72,0,33.91-14.2,33.91-31.71S273.4,93,254.68,93s-33.91,14.19-33.91,31.7S236,156.41,254.68,156.41Zm7.37-48.95a6.91,6.91,0,1,1-7.37,6.9A7.17,7.17,0,0,1,262.05,107.46Zm-8.29-13.8a.87.87,0,1,1-.93.87A.9.9,0,0,1,253.76,93.66Zm-12,13.8a6.91,6.91,0,1,1-7.38,6.9A7.17,7.17,0,0,1,241.77,107.46Z" fill="#231f20"/><path d="M346.68,196H319c-9,0-16.32,6.82-16.32,15.14S310,226.26,319,226.26h27.73c9,0,16.32-6.82,16.32-15.15S355.66,196,346.68,196Z" fill="#231f20"/><path d="M190.05,196H162.32c-9,0-16.32,6.82-16.32,15.14s7.34,15.15,16.32,15.15h27.73c9,0,16.32-6.82,16.32-15.15S199,196,190.05,196Z" fill="#231f20"/></g></svg>