
 <svg aria-hidden="true" style="position: absolute; width: 0; height: 0; overflow: hidden;" version="1.1" xmlns="http://www.w3.org/2000/svg" xmlns:xlink="http://www.w3.org/1999/xlink">

    <defs>
      <symbol id="icon-circle" viewBox="0 0 40 32">
      <title>circle</title>
      <path d="M20.035 6.584c-5.669 0-10.265 4.85-10.265 10.832s4.595 10.832 10.265 10.832 10.265-4.85 10.265-10.832-4.598-10.832-10.265-10.832zM17.303 26.646c0 0.425-0.328 0.769-0.729 0.769h-0.122c-0.401 0-0.729-0.346-0.729-0.769v-7.885c0-0.425 0.329-0.769 0.729-0.769h0.122c0.401 0 0.729 0.346 0.729 0.769zM18.407 14.938c0 0.469-0.38 0.85-0.85 0.85v0h-2.124c-0.469 0-0.85-0.38-0.85-0.85v0-2.124c0-0.469 0.38-0.85 0.85-0.85v0h2.124c0.469 0 0.85 0.38 0.85 0.85v0zM24.348 9.274c0-0.425 0.328-0.769 0.729-0.769h0.121c0.401 0 0.729 0.346 0.729 0.769v7.885c0 0.425-0.328 0.769-0.729 0.769h-0.121c-0.401 0-0.729-0.346-0.729-0.769zM27.044 22.938c0 0.469-0.38 0.85-0.85 0.85v0h-2.124c-0.469 0-0.85-0.38-0.85-0.85v0-2.124c0-0.469 0.38-0.85 0.85-0.85v0h2.124c0.469 0 0.85 0.38 0.85 0.85v0z"></path>
      </symbol>

      <symbol id="icon-man" viewBox="0 0 37 32">
      <title>man</title>
      <path d="M19.563 11.025h-3.922c-0.744 0-1.353 0.565-1.353 1.256v11.41c0 0.691 0.609 1.256 1.353 1.256h3.922c0.744 0 1.353-0.565 1.353-1.256v-11.41c0-0.691-0.609-1.256-1.353-1.256z"></path>
       <path d="M17.602 10.81c1.294 0 2.344-0.981 2.344-2.192s-1.050-2.191-2.344-2.191-2.344 0.981-2.344 2.191 1.053 2.192 2.344 2.192zM18.111 7.427c0.25 0.017 0.446 0.224 0.446 0.477 0 0.264-0.214 0.478-0.478 0.478s-0.477-0.214-0.478-0.477v-0c0.010-0.266 0.228-0.477 0.495-0.477 0.005 0 0.010 0 0.015 0l-0.001-0zM17.538 6.473c0.031 0.002 0.056 0.028 0.056 0.060 0 0.033-0.027 0.060-0.060 0.060s-0.060-0.027-0.060-0.060v0c0.001-0.033 0.029-0.060 0.062-0.060 0.001 0 0.001 0 0.002 0h-0zM16.709 7.427c0.249 0.018 0.445 0.224 0.445 0.476 0 0.264-0.214 0.478-0.478 0.478s-0.477-0.214-0.478-0.477v-0c0.010-0.266 0.228-0.477 0.495-0.477 0.005 0 0.011 0 0.016 0l-0.001-0z"></path>
      <path d="M23.961 13.546h-1.913c-0.622 0-1.128 0.471-1.128 1.046s0.506 1.045 1.128 1.045h1.917c0.622 0 1.128-0.471 1.128-1.047s-0.511-1.044-1.131-1.044z"></path>
      <path d="M13.135 13.546h-1.917c-0.622 0-1.128 0.471-1.128 1.046s0.507 1.047 1.128 1.047h1.917c0.622 0 1.128-0.471 1.128-1.047s-0.509-1.046-1.128-1.046z"></path>
      </symbol>

      <symbol id="icon-video" viewBox="0 0 34 32">
      <title>video</title>
      <path d="M23.222 16.38v-2.004c0-0.458-0.371-0.829-0.829-0.829v0h-2.916c1.608-0.581 2.736-2.094 2.736-3.87 0-2.267-1.838-4.105-4.105-4.105s-4.105 1.838-4.105 4.105c0 1.777 1.128 3.29 2.708 3.861l0.029 0.009h-5.508c1.569-0.112 2.799-1.412 2.799-2.999 0-1.66-1.346-3.006-3.006-3.006s-3.006 1.346-3.006 3.006c0 1.587 1.23 2.888 2.79 2.999l0.010 0.001h-3.904c-0.458 0-0.829 0.371-0.829 0.829v0 7.948c0 0.458 0.371 0.829 0.829 0.829v0h15.482c0.458 0 0.829-0.371 0.829-0.829v0-2.565l4.7 3.394v-9.607zM16.041 9.711c0-1.161 0.941-2.102 2.102-2.102s2.102 0.941 2.102 2.102c0 1.161-0.941 2.102-2.102 2.102v0c-1.161-0-2.101-0.941-2.102-2.102v-0zM9.494 10.575c0-0.864 0.7-1.564 1.564-1.564s1.564 0.7 1.564 1.564c0 0.864-0.7 1.564-1.564 1.564v0c-0.864 0-1.564-0.7-1.564-1.564v0zM20.32 16.998v3.94c-0.002 0.302-0.247 0.546-0.549 0.549h-10.237c-0.301-0.002-0.544-0.244-0.549-0.544v-5.253c0.002-0.302 0.247-0.546 0.549-0.549h10.237c0.302 0.002 0.546 0.247 0.549 0.549v0zM26.955 21.149l-2.765-1.997v-1.988l2.765-1.666z"></path>
      </symbol>

      <symbol id="icon-phone" viewBox="0 0 37 32">
      <title>phone</title>
      <path d="M22.42 8.847h-7.759c-0.424 0.001-0.768 0.345-0.769 0.769v14.491c0.001 0.424 0.345 0.768 0.769 0.769h7.759c0.424-0.001 0.768-0.345 0.769-0.769v-14.491c-0.001-0.424-0.345-0.768-0.769-0.769h-0zM18.605 23.921c-0.376 0-0.68-0.305-0.68-0.68s0.305-0.68 0.68-0.68c0.376 0 0.68 0.305 0.68 0.68v0c0 0 0 0 0 0.001 0 0.375-0.304 0.679-0.679 0.679-0 0-0 0-0.001 0h0z"></path>
      </symbol>

      <symbol id="icon-camera" viewBox="0 0 32 32">
      <title>camera</title>
      <path d="M8.467 10.402h2.35v1.313h-2.35v-1.313z"></path>
      <path d="M18.978 11.759l-0.462-1.91h-4.62l-0.396 1.91h-5.743v9.735h16.832v-9.735zM16.205 19.588c-1.68 0-3.041-1.362-3.041-3.041s1.362-3.041 3.041-3.041c1.68 0 3.041 1.362 3.041 3.041v0c0 1.68-1.362 3.041-3.041 3.041v0zM23.6 14.134h-2.488v-1.313h2.488z"></path>
      </symbol>

    </defs>
</svg>
