<svg id="Layer_1" data-name="Layer 1" xmlns="http://www.w3.org/2000/svg" viewBox="0 0 491 463"><title>icons</title><path id="Video" d="M336,237V208a12,12,0,0,0-12-12H281.81a59.4,59.4,0,1,0-39.62,0h-79.7a43.5,43.5,0,1,0-6,0H100a12,12,0,0,0-12,12V323a12,12,0,0,0,12,12H324a12,12,0,0,0,12-12V285.89L404,335V196ZM232.09,140.5a30.41,30.41,0,1,1,30.41,30.41A30.42,30.42,0,0,1,232.09,140.5ZM137.37,153A22.63,22.63,0,1,1,160,175.63,22.63,22.63,0,0,1,137.37,153ZM294,245.94v57a8,8,0,0,1-7.94,7.94H137.94A8,8,0,0,1,130,303v-76a8,8,0,0,1,7.94-7.94H286.06a8,8,0,0,1,7.94,7.94ZM390,306l-40-28.89V248.35l40-24.11Z" fill="#231f20"/></svg>